<?xml version="1.0" encoding="us-ascii" standalone="no"?><svg xmlns="http://www.w3.org/2000/svg" xmlns:xlink="http://www.w3.org/1999/xlink" contentStyleType="text/css" height="518px" preserveAspectRatio="none" style="width:1397px;height:518px;background:#FFFFFF;" version="1.1" viewBox="0 0 1397 518" width="1397px" zoomAndPan="magnify"><defs/><g><!--cluster new.Dataset--><g id="cluster_new.Dataset"><rect fill="none" height="92" rx="2.5" ry="2.5" style="stroke:#181818;stroke-width:1.0;" width="210" x="1007" y="7"/><text fill="#000000" font-family="sans-serif" font-size="14" font-weight="bold" lengthAdjust="spacing" textLength="53" x="1087.5" y="24.1074">Dataset</text></g><!--cluster new.DataScaler--><g id="cluster_new.DataScaler"><rect fill="none" height="92" rx="2.5" ry="2.5" style="stroke:#181818;stroke-width:1.0;" width="126" x="481" y="420"/><text fill="#000000" font-family="sans-serif" font-size="14" font-weight="bold" lengthAdjust="spacing" textLength="75" x="508.5" y="437.1074">DataScaler</text></g><!--cluster new.Experiment--><g id="cluster_new.Experiment"><rect fill="none" height="389" rx="2.5" ry="2.5" style="stroke:#181818;stroke-width:1.0;" width="450" x="7" y="123"/><text fill="#000000" font-family="sans-serif" font-size="14" font-weight="bold" lengthAdjust="spacing" textLength="80" x="194" y="140.1074">Experiment</text></g><!--cluster new.ModelTrainer--><g id="cluster_new.ModelTrainer"><rect fill="none" height="92" rx="2.5" ry="2.5" style="stroke:#181818;stroke-width:1.0;" width="197" x="631" y="420"/><text fill="#000000" font-family="sans-serif" font-size="14" font-weight="bold" lengthAdjust="spacing" textLength="94" x="684.5" y="437.1074">ModelTrainer</text></g><!--cluster new.ModelOptimizer--><g id="cluster_new.ModelOptimizer"><rect fill="none" height="92" rx="2.5" ry="2.5" style="stroke:#181818;stroke-width:1.0;" width="132" x="852" y="420"/><text fill="#000000" font-family="sans-serif" font-size="14" font-weight="bold" lengthAdjust="spacing" textLength="111" x="864.5" y="437.1074">ModelOptimizer</text></g><!--cluster new.Plotter--><g id="cluster_new.Plotter"><rect fill="none" height="92" rx="2.5" ry="2.5" style="stroke:#181818;stroke-width:1.0;" width="910" x="481" y="123"/><text fill="#000000" font-family="sans-serif" font-size="14" font-weight="bold" lengthAdjust="spacing" textLength="47" x="914.5" y="140.1074">Plotter</text></g><!--entity new.Dataset___load_and_clean_data--><g id="elem_new.Dataset___load_and_clean_data"><rect fill="#F1F1F1" height="38.6211" rx="2.5" ry="2.5" style="stroke:#181818;stroke-width:0.5;" width="177" x="1023.5" y="44"/><text fill="#000000" font-family="sans-serif" font-size="14" lengthAdjust="spacing" textLength="153" x="1037.5" y="69.1074">__load_and_clean_data</text></g><!--entity new.DataScaler_scale_data--><g id="elem_new.DataScaler_scale_data"><rect fill="#F1F1F1" height="38.6211" rx="2.5" ry="2.5" style="stroke:#181818;stroke-width:0.5;" width="93" x="497.5" y="457"/><text fill="#000000" font-family="sans-serif" font-size="14" lengthAdjust="spacing" textLength="69" x="511.5" y="482.1074">scale_data</text></g><!--entity new.Experiment_run--><g id="elem_new.Experiment_run"><rect fill="#F1F1F1" height="38.6211" rx="2.5" ry="2.5" style="stroke:#181818;stroke-width:0.5;" width="45" x="308.5" y="160"/><text fill="#000000" font-family="sans-serif" font-size="14" lengthAdjust="spacing" textLength="21" x="322.5" y="185.1074">run</text></g><!--entity new.Experiment_run_single_replication--><g id="elem_new.Experiment_run_single_replication"><rect fill="#F1F1F1" height="38.6211" rx="2.5" ry="2.5" style="stroke:#181818;stroke-width:0.5;" width="163" x="23.5" y="259"/><text fill="#000000" font-family="sans-serif" font-size="14" lengthAdjust="spacing" textLength="139" x="37.5" y="284.1074">run_single_replication</text></g><!--entity new.Experiment_balance_dataset--><g id="elem_new.Experiment_balance_dataset"><rect fill="#F1F1F1" height="38.6211" rx="2.5" ry="2.5" style="stroke:#181818;stroke-width:0.5;" width="129" x="40.5" y="358"/><text fill="#000000" font-family="sans-serif" font-size="14" lengthAdjust="spacing" textLength="105" x="54.5" y="383.1074">balance_dataset</text></g><!--entity new.Experiment_train_and_evaluate_model--><g id="elem_new.Experiment_train_and_evaluate_model"><rect fill="#F1F1F1" height="38.6211" rx="2.5" ry="2.5" style="stroke:#181818;stroke-width:0.5;" width="192" x="249" y="358"/><text fill="#000000" font-family="sans-serif" font-size="14" lengthAdjust="spacing" textLength="168" x="263" y="383.1074">train_and_evaluate_model</text></g><!--entity new.Experiment_store_results--><g id="elem_new.Experiment_store_results"><rect fill="#F1F1F1" height="38.6211" rx="2.5" ry="2.5" style="stroke:#181818;stroke-width:0.5;" width="106" x="292" y="457"/><text fill="#000000" font-family="sans-serif" font-size="14" lengthAdjust="spacing" textLength="82" x="306" y="482.1074">store_results</text></g><!--entity new.Experiment_calculate_mean_conf_matrices--><g id="elem_new.Experiment_calculate_mean_conf_matrices"><rect fill="#F1F1F1" height="38.6211" rx="2.5" ry="2.5" style="stroke:#181818;stroke-width:0.5;" width="219" x="221.5" y="259"/><text fill="#000000" font-family="sans-serif" font-size="14" lengthAdjust="spacing" textLength="195" x="235.5" y="284.1074">calculate_mean_conf_matrices</text></g><!--entity new.ModelTrainer_train--><g id="elem_new.ModelTrainer_train"><rect fill="#F1F1F1" height="38.6211" rx="2.5" ry="2.5" style="stroke:#181818;stroke-width:0.5;" width="52" x="760" y="457"/><text fill="#000000" font-family="sans-serif" font-size="14" lengthAdjust="spacing" textLength="28" x="774" y="482.1074">train</text></g><!--entity new.ModelTrainer_evaluate--><g id="elem_new.ModelTrainer_evaluate"><rect fill="#F1F1F1" height="38.6211" rx="2.5" ry="2.5" style="stroke:#181818;stroke-width:0.5;" width="78" x="647" y="457"/><text fill="#000000" font-family="sans-serif" font-size="14" lengthAdjust="spacing" textLength="54" x="661" y="482.1074">evaluate</text></g><!--entity new.ModelOptimizer_grid_search--><g id="elem_new.ModelOptimizer_grid_search"><rect fill="#F1F1F1" height="38.6211" rx="2.5" ry="2.5" style="stroke:#181818;stroke-width:0.5;" width="99" x="868.5" y="457"/><text fill="#000000" font-family="sans-serif" font-size="14" lengthAdjust="spacing" textLength="75" x="882.5" y="482.1074">grid_search</text></g><!--entity new.Plotter_plot_metric_density--><g id="elem_new.Plotter_plot_metric_density"><rect fill="#F1F1F1" height="38.6211" rx="2.5" ry="2.5" style="stroke:#181818;stroke-width:0.5;" width="146" x="1229" y="160"/><text fill="#000000" font-family="sans-serif" font-size="14" lengthAdjust="spacing" textLength="122" x="1243" y="185.1074">plot_metric_density</text></g><!--entity new.Plotter_plot_evaluation_metric_over_replications--><g id="elem_new.Plotter_plot_evaluation_metric_over_replications"><rect fill="#F1F1F1" height="38.6211" rx="2.5" ry="2.5" style="stroke:#181818;stroke-width:0.5;" width="282" x="912" y="160"/><text fill="#000000" font-family="sans-serif" font-size="14" lengthAdjust="spacing" textLength="258" x="926" y="185.1074">plot_evaluation_metric_over_replications</text></g><!--entity new.Plotter_plot_confusion_matrices--><g id="elem_new.Plotter_plot_confusion_matrices"><rect fill="#F1F1F1" height="38.6211" rx="2.5" ry="2.5" style="stroke:#181818;stroke-width:0.5;" width="177" x="699.5" y="160"/><text fill="#000000" font-family="sans-serif" font-size="14" lengthAdjust="spacing" textLength="153" x="713.5" y="185.1074">plot_confusion_matrices</text></g><!--entity new.Plotter_print_best_parameters--><g id="elem_new.Plotter_print_best_parameters"><rect fill="#F1F1F1" height="38.6211" rx="2.5" ry="2.5" style="stroke:#181818;stroke-width:0.5;" width="167" x="497.5" y="160"/><text fill="#000000" font-family="sans-serif" font-size="14" lengthAdjust="spacing" textLength="143" x="511.5" y="185.1074">print_best_parameters</text></g><!--entity _main--><g id="elem__main"><rect fill="#F1F1F1" height="38.6211" rx="2.5" ry="2.5" style="stroke:#181818;stroke-width:0.5;" width="54" x="761" y="44"/><text fill="#000000" font-family="sans-serif" font-size="14" lengthAdjust="spacing" textLength="30" x="775" y="69.1074">main</text></g><!--link new.Experiment_run to new.Experiment_run_single_replication--><g id="link_new.Experiment_run_new.Experiment_run_single_replication"><path d="M308.09,190.33 C270.72,206.37 201.5635,236.0533 153.9235,256.5033 " fill="none" id="new.Experiment_run-to-new.Experiment_run_single_replication" style="stroke:#181818;stroke-width:1.0;"/><polygon fill="#181818" points="148.41,258.87,158.2581,258.9956,153.0046,256.8977,155.1024,251.6442,148.41,258.87" style="stroke:#181818;stroke-width:1.0;"/></g><!--link new.Experiment_run to new.Experiment_calculate_mean_conf_matrices--><g id="link_new.Experiment_run_new.Experiment_calculate_mean_conf_matrices"><path d="M331,199.2 C331,216.38 331,235.7 331,252.85 " fill="none" id="new.Experiment_run-to-new.Experiment_calculate_mean_conf_matrices" style="stroke:#181818;stroke-width:1.0;"/><polygon fill="#181818" points="331,258.85,335,249.85,331,253.85,327,249.85,331,258.85" style="stroke:#181818;stroke-width:1.0;"/></g><!--link new.Experiment_run_single_replication to new.Experiment_balance_dataset--><g id="link_new.Experiment_run_single_replication_new.Experiment_balance_dataset"><path d="M105,298.2 C105,315.38 105,334.7 105,351.85 " fill="none" id="new.Experiment_run_single_replication-to-new.Experiment_balance_dataset" style="stroke:#181818;stroke-width:1.0;"/><polygon fill="#181818" points="105,357.85,109,348.85,105,352.85,101,348.85,105,357.85" style="stroke:#181818;stroke-width:1.0;"/></g><!--link new.Experiment_run_single_replication to new.Experiment_train_and_evaluate_model--><g id="link_new.Experiment_run_single_replication_new.Experiment_train_and_evaluate_model"><path d="M150.99,298.09 C193.59,315.31 251.0471,338.5318 293.6071,355.7318 " fill="none" id="new.Experiment_run_single_replication-to-new.Experiment_train_and_evaluate_model" style="stroke:#181818;stroke-width:1.0;"/><polygon fill="#181818" points="299.17,357.98,292.3244,350.8992,294.5343,356.1065,289.3269,358.3164,299.17,357.98" style="stroke:#181818;stroke-width:1.0;"/></g><!--link new.Experiment_train_and_evaluate_model to new.ModelOptimizer_grid_search--><g id="link_new.Experiment_train_and_evaluate_model_new.ModelOptimizer_grid_search"><path d="M441.23,379.07 C561.3,380.84 759.2,387.52 828,412 C855.02,421.62 876.7735,437.7987 893.8835,452.8387 " fill="none" id="new.Experiment_train_and_evaluate_model-to-new.ModelOptimizer_grid_search" style="stroke:#181818;stroke-width:1.0;"/><polygon fill="#181818" points="898.39,456.8,894.2711,447.8538,894.6346,453.4989,888.9894,453.8624,898.39,456.8" style="stroke:#181818;stroke-width:1.0;"/></g><!--link new.Experiment_train_and_evaluate_model to new.DataScaler_scale_data--><g id="link_new.Experiment_train_and_evaluate_model_new.DataScaler_scale_data"><path d="M419.86,397.02 C432.55,401.25 445.36,406.23 457,412 C481.29,424.05 501.3575,438.9827 518.1975,452.9927 " fill="none" id="new.Experiment_train_and_evaluate_model-to-new.DataScaler_scale_data" style="stroke:#181818;stroke-width:1.0;"/><polygon fill="#181818" points="522.81,456.83,518.4495,447.999,518.9663,453.6322,513.3331,454.149,522.81,456.83" style="stroke:#181818;stroke-width:1.0;"/></g><!--link new.Experiment_train_and_evaluate_model to new.ModelTrainer_train--><g id="link_new.Experiment_train_and_evaluate_model_new.ModelTrainer_train"><path d="M441.44,382.28 C550.9,387.25 717.61,397.13 743,412 C760.12,422.02 769.3712,436.4397 776.2112,451.2997 " fill="none" id="new.Experiment_train_and_evaluate_model-to-new.ModelTrainer_train" style="stroke:#181818;stroke-width:1.0;"/><polygon fill="#181818" points="778.72,456.75,778.5904,446.902,776.6294,452.2081,771.3233,450.247,778.72,456.75" style="stroke:#181818;stroke-width:1.0;"/></g><!--link new.Experiment_train_and_evaluate_model to new.ModelTrainer_evaluate--><g id="link_new.Experiment_train_and_evaluate_model_new.ModelTrainer_evaluate"><path d="M441.11,385.31 C503.22,390.75 577.72,399.55 607,412 C631.13,422.26 649.6773,437.8574 664.5273,452.6374 " fill="none" id="new.Experiment_train_and_evaluate_model-to-new.ModelTrainer_evaluate" style="stroke:#181818;stroke-width:1.0;"/><polygon fill="#181818" points="668.78,456.87,665.2228,447.686,665.2361,453.3428,659.5793,453.3562,668.78,456.87" style="stroke:#181818;stroke-width:1.0;"/></g><!--link new.Experiment_train_and_evaluate_model to new.Experiment_store_results--><g id="link_new.Experiment_train_and_evaluate_model_new.Experiment_store_results"><path d="M345,397.2 C345,414.38 345,433.7 345,450.85 " fill="none" id="new.Experiment_train_and_evaluate_model-to-new.Experiment_store_results" style="stroke:#181818;stroke-width:1.0;"/><polygon fill="#181818" points="345,456.85,349,447.85,345,451.85,341,447.85,345,456.85" style="stroke:#181818;stroke-width:1.0;"/></g><!--link _main to new.Experiment_run--><g id="link__main_new.Experiment_run"><path d="M760.83,66.79 C706.7,71.81 581.92,85.79 481,115 C434.28,128.52 388.0066,149.8769 359.1366,164.1769 " fill="none" id="_main-to-new.Experiment_run" style="stroke:#181818;stroke-width:1.0;"/><polygon fill="#181818" points="353.76,166.84,363.6003,166.4297,358.2405,164.6207,360.0494,159.2609,353.76,166.84" style="stroke:#181818;stroke-width:1.0;"/></g><!--link _main to new.Plotter_plot_metric_density--><g id="link__main_new.Plotter_plot_metric_density"><path d="M815.11,71.15 C856.28,80.93 937.17,98.91 1007,107 C1052.29,112.25 1168.82,100.37 1212,115 C1239.35,124.27 1261.2713,140.6973 1278.3213,155.8973 " fill="none" id="_main-to-new.Plotter_plot_metric_density" style="stroke:#181818;stroke-width:1.0;"/><polygon fill="#181818" points="1282.8,159.89,1278.7438,150.9152,1279.0678,156.5627,1273.4202,156.8867,1282.8,159.89" style="stroke:#181818;stroke-width:1.0;"/></g><!--link _main to new.Plotter_plot_evaluation_metric_over_replications--><g id="link__main_new.Plotter_plot_evaluation_metric_over_replications"><path d="M815.36,76.27 C861.38,96.07 949.1186,133.8085 1004.1286,157.4785 " fill="none" id="_main-to-new.Plotter_plot_evaluation_metric_over_replications" style="stroke:#181818;stroke-width:1.0;"/><polygon fill="#181818" points="1009.64,159.85,1002.9538,152.6185,1005.0471,157.8738,999.7918,159.9671,1009.64,159.85" style="stroke:#181818;stroke-width:1.0;"/></g><!--link _main to new.Plotter_plot_confusion_matrices--><g id="link__main_new.Plotter_plot_confusion_matrices"><path d="M788,83.07 C788,104.27 788,132.74 788,153.94 " fill="none" id="_main-to-new.Plotter_plot_confusion_matrices" style="stroke:#181818;stroke-width:1.0;"/><polygon fill="#181818" points="788,159.94,792,150.94,788,154.94,784,150.94,788,159.94" style="stroke:#181818;stroke-width:1.0;"/></g><!--link _main to new.Plotter_print_best_parameters--><g id="link__main_new.Plotter_print_best_parameters"><path d="M760.99,76.31 C739.31,86.05 708.25,100.56 682,115 C656.59,128.98 633.7834,143.3637 613.7834,156.5137 " fill="none" id="_main-to-new.Plotter_print_best_parameters" style="stroke:#181818;stroke-width:1.0;"/><polygon fill="#181818" points="608.77,159.81,618.4877,158.2078,612.9478,157.0631,614.0926,151.5232,608.77,159.81" style="stroke:#181818;stroke-width:1.0;"/></g><!--SRC=[fLNRZXiX37tdAz2yRp-XKgNsiMgbtNVa1IT1vJ82PY-jzj-N6OOCIG3DRb-IsEVu68pjdAH0YdeChvHBnnMIq-RHg1_HUKBy7sb6SA2fFu6mpz8SwG6KnmBXLe_Me0dtuLKXTSW3cACgAG8FCAdmW2_Xcv97eoERylY1Zf1pF3Nu_EKx1F0OA7WwqDKOwBywYp6cB0W6Hh1u1J1CH235Lg61lDKItdDGwBQSoQwdJHZpyrUHRhChENwyZEZaSkk5lDctEJQCkSaaVlmnT6dCoxdapE6e98SWxHPPmJfYZw30y7IJypjSEJlXmO4qIz7n2TG40Pcs0bNIQQ4TGH-icy_kO__ujTIbgnCQNuHFQaaolp-tvi0q12SvhaezHkKPVyvdVPZla9kbzDm-POccoXHb67haN9x4prRhIB_68BNyUt6eiwznh3FEZauAvX4SFwNumb79-5lP47AgrRZDiG9iZD-nk7D9cK3ZPTmkIsG567eQQmrYy-Oe-nInegbz8Ro3tSqsTyBab_2BXcc0JIqdvv527zYo234wir8DkYftrCyjevUEgUo7kxkl-_R1pk3UI91zYwUYUhL0FY_KsY1axnxAckqX-B1KzL_XSmUwM1R_9v4v7rPfBL-Ish7US5TWP_nxp1rZsmk_7SmMkpPyv1q0]--></g></svg>